
<svg xmlns="http://www.w3.org/2000/svg" viewBox="0 0 512 512" fill="#ea384d">
  <path d="M156.8 411.8l31.22-31.22l-60.04-53.09l-52.29 52.28C96.45 366.9 128.7 395.9 156.8 411.8zM332.1 156.7c-14.5-14.5-36.5-18.6-55.2-10.2c-7.9 3.5-15.8 8.8-23.1 16.1c-10.3 10.3-17.2 22.3-20.3 35.2c-3 12.9-1.1 25.7 5.6 37.5l-15 15c-11.8-6.7-24.6-8.6-37.5-5.6c-12.9 3-24.9 10-35.2 20.3c-7.3 7.3-12.6 15.2-16.1 23.1c-8.4 18.7-4.3 40.7 10.2 55.2l9.1 9.1l61.3-61.3c4.6-4.6 11.9-4.6 16.6 0s4.6 11.9 0 16.6l-61.3 61.3l9.1 9.1c14.5 14.5 36.5 18.6 55.2 10.2c7.9-3.5 15.8-8.8 23.1-16.1c10.3-10.3 17.2-22.3 20.3-35.2c3-12.9 1.1-25.7-5.6-37.5l15-15c11.8 6.7 24.6 8.6 37.5 5.6c12.9-3 24.9-10 35.2-20.3c7.3-7.3 12.6-15.2 16.1-23.1c8.4-18.7 4.3-40.7-10.2-55.2L332.1 156.7zM421.8 421.8c-30.9 30.9-67.9 47.2-108.4 47.2c-40.4 0-77.5-16.3-108.4-47.2S157.9 354 157.9 313.6c0-40.4 16.3-77.5 47.2-108.4s67.9-47.2 108.4-47.2c40.4 0 77.5 16.3 108.4 47.2s47.2 67.9 47.2 108.4C468.9 354 452.6 391 421.8 421.8zM313.6 0c-74.1 0-148.2 28.3-204.8 84.9l-84.9 84.9c0 0-.3-.3 0 0c-3.1 3.1-3.1 8.2 0 11.3l101.8 101.8l57.3-57.3c-1.2-5-1.9-10.3-1.9-15.7c0-17.7 6.9-34.2 19.5-46.7s29.1-19.5 46.7-19.5c5.4 0 10.7 .7 15.7 1.9l57.3-57.3L218.5 2c-3.1-3.1-8.2-3.1-11.3 0C206.6 2.3 207.1 2 207.1 2L122.2 86.9C159 31.5 211.4 0 269.6 0H313.6L476.1 162.5v44c0 58.1-31.5 110.5-86.9 147.3l84.9-84.9c0 0-.3 .5 0 0c3.1-3.1 3.1-8.2 0-11.3L372.3 101.8l-57.3 57.3c1.2 5 1.9 10.3 1.9 15.7c0 17.7-6.9 34.2-19.5 46.7s-29.1 19.5-46.7 19.5c-5.4 0-10.7-.7-15.7-1.9l-57.3 57.3L279.4 398c3.1 3.1 8.2 3.1 11.3 0c.3-.3 0 .2 0 0l84.9-84.9c-36.8 55.5-89.2 86.9-147.3 86.9H184.4L21.9 237.5V193.6c0-58.2 31.5-110.6 86.9-147.4L2 122.2c0 0 .3-.5 0 0c-3.1 3.1-3.1 8.2 0 11.3L157.9 290.2l57.3-57.3c5 1.2 10.3 1.9 15.7 1.9c17.7 0 34.2-6.9 46.7-19.5s19.5-29.1 19.5-46.7c0-5.4-.7-10.7-1.9-15.7l57.3-57.3L250.7 2C253.8-1.1 253.8-1.1 250.7 2C250.5 2.3 251 2 251 2l84.9 84.9C372.4 48.3 346.6 26.8 320 13.5V0H313.6z"/>
</svg>
